<?xml version="1.0" encoding="UTF-8" standalone="no"?>
<svg
   xmlns:dc="http://purl.org/dc/elements/1.1/"
   xmlns:cc="http://creativecommons.org/ns#"
   xmlns:rdf="http://www.w3.org/1999/02/22-rdf-syntax-ns#"
   xmlns:svg="http://www.w3.org/2000/svg"
   xmlns="http://www.w3.org/2000/svg"
   xmlns:sodipodi="http://sodipodi.sourceforge.net/DTD/sodipodi-0.dtd"
   xmlns:inkscape="http://www.inkscape.org/namespaces/inkscape"
   width="192"
   height="192"
   viewBox="0 0 192 192"
   version="1.1"
   id="svg8"
   sodipodi:docname="icona.svg"
   inkscape:export-filename="D:\Projects\Android Studio\EasyNews\app\src\main\res\mipmap-xxxhdpi\ic_launcher.png"
   inkscape:export-xdpi="96"
   inkscape:export-ydpi="96"
   inkscape:version="0.92.3 (2405546, 2018-03-11)">
  <metadata
     id="metadata14">
    <rdf:RDF>
      <cc:Work
         rdf:about="">
        <dc:format>image/svg+xml</dc:format>
        <dc:type
           rdf:resource="http://purl.org/dc/dcmitype/StillImage" />
        <dc:title />
      </cc:Work>
    </rdf:RDF>
  </metadata>
  <defs
     id="defs12" />
  <sodipodi:namedview
     pagecolor="#ffffff"
     bordercolor="#666666"
     borderopacity="1"
     objecttolerance="10"
     gridtolerance="10"
     guidetolerance="10"
     inkscape:pageopacity="0"
     inkscape:pageshadow="2"
     inkscape:window-width="640"
     inkscape:window-height="480"
     id="namedview10"
     showgrid="false"
     inkscape:snap-bbox="true"
     inkscape:snap-page="true"
     inkscape:object-paths="true"
     inkscape:snap-grids="true"
     inkscape:bbox-nodes="true"
     inkscape:bbox-paths="true"
     inkscape:zoom="1.1969255"
     inkscape:cx="280.83549"
     inkscape:cy="181.26585"
     inkscape:current-layer="svg8"
     inkscape:snap-object-midpoints="true"
     inkscape:snap-nodes="false"
     inkscape:snap-global="false">
    <inkscape:grid
       type="xygrid"
       id="grid4504"
       units="px"
       spacingx="4"
       spacingy="4" />
  </sodipodi:namedview>
  <rect
     style="opacity:1;fill:#b71c1c;fill-opacity:1;fill-rule:nonzero;stroke:none;stroke-width:1;stroke-linecap:round;stroke-linejoin:round;stroke-miterlimit:4.60298777;stroke-dasharray:none;stroke-dashoffset:0;stroke-opacity:1;paint-order:normal"
     id="rect3686-5"
     width="192"
     height="192"
     x="0"
     y="0"
     ry="16" />
  <path
     d="m 12,11.999999 v 30.555053 c 75.89963,0 137.44495,61.545318 137.44495,137.444938 H 180 C 180,87.25777 104.74221,11.999999 12,11.999999 Z m 0,61.110106 v 30.555055 c 42.10648,0 76.33495,34.22836 76.33495,76.33483 h 30.55494 C 118.88989,120.94295 71.05704,73.110105 12,73.110105 Z M 35.5331,132.9338 A 23.536443,23.536444 0 0 0 12,156.4669 23.536443,23.536444 0 0 0 35.5331,179.99999 23.536443,23.536444 0 0 0 59.06619,156.4669 23.536443,23.536444 0 0 0 35.5331,132.9338 Z"
     id="circle4-6"
     inkscape:connector-curvature="0"
     style="fill:#aaaaaa;fill-opacity:1;stroke-width:0.99999988" />
  <path
     style="fill:#212121;fill-opacity:1;stroke-width:1"
     d="M 174.00132,7.7858903 C 153.25856,21.651768 136.93643,41.169387 121.31741,60.468158 106.178,79.866999 92.873666,100.7389 81.800694,122.76692 77.880067,112.68536 74.54892,100.51772 64.876321,94.535195 54.575255,91.13266 45.85468,100.58512 40.031801,107.8794 c -4.287658,3.31061 -3.497194,5.92195 0.975658,8.24498 15.443052,11.79371 25.027224,29.94811 27.166711,49.05136 1.005693,6.57793 1.486101,13.22062 2.021673,19.84979 7.298822,-9.65863 17.20571,-16.67735 25.518174,-25.25001 C 113.16166,114.98363 137.8632,73.006513 167.53418,35.311873 172.64866,29.209156 178.08237,23.42853 183.74083,17.777256 180.3441,14.820542 180.00992,6.41621 174.00132,7.7858903 Z"
     id="path852"
     inkscape:connector-curvature="0" />
</svg>
